<?xml version="1.0" standalone="no"?>
<!DOCTYPE svg PUBLIC "-//W3C//DTD SVG 20010904//EN"
 "http://www.w3.org/TR/2001/REC-SVG-20010904/DTD/svg10.dtd">
<svg version="1.0" xmlns="http://www.w3.org/2000/svg"
 width="128.000000pt" height="128.000000pt" viewBox="0 0 128.000000 128.000000"
 preserveAspectRatio="xMidYMid meet">
<metadata>
Created by potrace 1.11, written by Peter Selinger 2001-2013
</metadata>
<g transform="translate(0.000000,128.000000) scale(0.100000,-0.100000)"
fill="#000000" stroke="none">
<path d="M73 1265 c-18 -8 -42 -29 -53 -47 -19 -32 -20 -49 -20 -573 0 -604
-1 -592 70 -628 32 -16 79 -17 574 -17 532 1 540 1 574 22 63 39 62 32 62 625
-1 529 -1 537 -22 571 -39 63 -32 62 -620 62 -435 -1 -539 -3 -565 -15z"/>
</g>
</svg>
